<svg height="512pt" viewBox="-44 0 511 512" width="512pt" xmlns="http://www.w3.org/2000/svg"><path d="m372.714844 96.1875h-52.601563v-8.515625c0-21.824219-17.753906-39.578125-39.578125-39.578125h-88.699218c.011718-.167969.027343-.332031.027343-.5v-32.5625h24.546875c4.152344 0 7.515625-3.367188 7.515625-7.515625 0-4.152344-3.363281-7.515625-7.515625-7.515625h-64.125c-4.148437 0-7.515625 3.363281-7.515625 7.515625 0 4.148437 3.367188 7.515625 7.515625 7.515625h24.546875v32.5625c0 .167969.015625.332031.027344.5h-88.699219c-21.824218 0-39.578125 17.753906-39.578125 39.578125v8.515625h-40.578125c-3.027344 0-5.824218 1.882812-6.964844 4.691406-1.214843 2.992188-.332031 6.527344 2.152344 8.597656l45.390625 37.824219v325.121094c0 21.824219 17.753907 39.578125 39.578125 39.578125h192.375c21.824219 0 39.578125-17.753906 39.578125-39.578125v-144.78125h52.601563c28.453125 0 51.601562-23.148437 51.601562-51.601563v-128.25c0-28.453124-23.148437-51.601562-51.601562-51.601562zm-309.101563 135.265625h113.21875v169.328125h-96.6875c-4.152343 0-7.515625 3.367188-7.515625 7.515625 0 9.269531 3.210938 17.796875 8.566406 24.546875h-17.582031zm25.222657 184.359375h191.023437c-3.179687 9.871094-12.457031 17.03125-23.371094 17.03125h-144.28125c-10.914062 0-20.191406-7.160156-23.371093-17.03125zm199.714843-15.03125h-96.6875v-169.328125h113.21875v201.390625h-17.585937c5.359375-6.75 8.570312-15.277344 8.570312-24.546875 0-4.148437-3.363281-7.515625-7.515625-7.515625zm31.5625-220.429688c0-4.148437-3.363281-7.515624-7.515625-7.515624s-7.515625 3.367187-7.515625 7.515624v36.070313h-113.21875v-105.203125h113.21875v33.0625c0 4.152344 3.363281 7.515625 7.515625 7.515625s7.515625-3.363281 7.515625-7.515625v-9.015625h52.601563c6.90625 0 12.523437 5.617187 12.523437 12.523437v128.25c0 6.90625-5.617187 12.523438-12.523437 12.523438h-52.601563zm-256.5-92.679687c0-13.535156 11.011719-24.546875 24.546875-24.546875h192.375c13.535156 0 24.546875 11.011719 24.546875 24.546875v8.515625h-241.46875zm-34.855469 23.546875h148.074219v105.203125h-113.21875v-72.640625c0-2.230469-.992187-4.347656-2.703125-5.773438zm251.777344 385.75h-192.375c-13.535156 0-24.546875-11.011719-24.546875-24.546875v-24.546875h241.46875v24.546875c0 13.535156-11.011719 24.546875-24.546875 24.546875zm128.75-220.929688c0 20.164063-16.402344 36.570313-36.570312 36.570313h-52.601563v-9.015625h52.601563c15.191406 0 27.554687-12.359375 27.554687-27.554688v-128.25c0-15.195312-12.363281-27.554687-27.554687-27.554687h-52.601563v-9.015625h52.601563c20.167968 0 36.570312 16.40625 36.570312 36.570312zm0 0"/><path d="m191.863281 464.40625c0 4.152344-3.367187 7.515625-7.515625 7.515625-4.148437 0-7.515625-3.363281-7.515625-7.515625 0-4.148438 3.367188-7.515625 7.515625-7.515625 4.148438 0 7.515625 3.367187 7.515625 7.515625zm0 0"/><path d="m240.457031 464.40625c0 4.152344-3.363281 7.515625-7.515625 7.515625-4.148437 0-7.511718-3.363281-7.511718-7.515625 0-4.148438 3.363281-7.515625 7.511718-7.515625 4.152344 0 7.515625 3.367187 7.515625 7.515625zm0 0"/><path d="m289.050781 464.40625c0 4.152344-3.363281 7.515625-7.511719 7.515625-4.152343 0-7.515624-3.363281-7.515624-7.515625 0-4.148438 3.363281-7.515625 7.515624-7.515625 4.148438 0 7.511719 3.367187 7.511719 7.515625zm0 0"/><path d="m95.675781 464.40625c0 4.152344-3.367187 7.515625-7.515625 7.515625-4.152344 0-7.515625-3.363281-7.515625-7.515625 0-4.148438 3.363281-7.515625 7.515625-7.515625 4.148438 0 7.515625 3.367187 7.515625 7.515625zm0 0"/><path d="m144.269531 464.40625c0 4.152344-3.363281 7.515625-7.515625 7.515625-4.148437 0-7.515625-3.363281-7.515625-7.515625 0-4.148438 3.367188-7.515625 7.515625-7.515625 4.152344 0 7.515625 3.367187 7.515625 7.515625zm0 0"/><path d="m168.316406 480.9375c0 4.152344-3.363281 7.515625-7.515625 7.515625-4.148437 0-7.515625-3.363281-7.515625-7.515625 0-4.148438 3.367188-7.511719 7.515625-7.511719 4.152344 0 7.515625 3.363281 7.515625 7.511719zm0 0"/><path d="m120.222656 480.9375c0 4.152344-3.363281 7.515625-7.515625 7.515625-4.148437 0-7.515625-3.363281-7.515625-7.515625 0-4.148438 3.367188-7.511719 7.515625-7.511719 4.152344 0 7.515625 3.363281 7.515625 7.511719zm0 0"/><path d="m215.410156 480.9375c0 4.152344-3.367187 7.515625-7.515625 7.515625-4.152343 0-7.515625-3.363281-7.515625-7.515625 0-4.148438 3.363282-7.511719 7.515625-7.511719 4.148438 0 7.515625 3.363281 7.515625 7.511719zm0 0"/><path d="m263.503906 480.9375c0 4.152344-3.367187 7.515625-7.515625 7.515625-4.152343 0-7.515625-3.363281-7.515625-7.515625 0-4.148438 3.363282-7.511719 7.515625-7.511719 4.148438 0 7.515625 3.363281 7.515625 7.511719zm0 0"/></svg>